HIERARCHY
ROOT Hips
{
	OFFSET -1.602300 6.242603 43.997101
	CHANNELS 6 Xposition Yposition Zposition Zrotation Xrotation Yrotation
	JOINT Chest
	{
		OFFSET -0.204900 1.598101 7.917301
		CHANNELS 6 Xposition Yposition Zposition Zrotation Xrotation Yrotation
		JOINT Chest2
		{
			OFFSET 0.000000 0.000000 3.404099
			CHANNELS 6 Xposition Yposition Zposition Zrotation Xrotation Yrotation
			JOINT Neck
			{
				OFFSET 0.000000 0.000000 7.928600
				CHANNELS 6 Xposition Yposition Zposition Zrotation Xrotation Yrotation
				JOINT Head
				{
					OFFSET 0.000000 0.000000 2.173897
					CHANNELS 6 Xposition Yposition Zposition Zrotation Xrotation Yrotation
					End Site
					{
						OFFSET 0.000000 0.000001 10.404503
					}
				}
			}
			JOINT LeftCollar
			{
				OFFSET 2.833800 -1.396299 4.843300
				CHANNELS 6 Xposition Yposition Zposition Zrotation Xrotation Yrotation
				JOINT LeftShoulder
				{
					OFFSET 4.363600 0.000000 0.000000
					CHANNELS 6 Xposition Yposition Zposition Zrotation Xrotation Yrotation
					JOINT LeftElbow
					{
						OFFSET 0.000000 -0.000001 -10.306900
						CHANNELS 6 Xposition Yposition Zposition Zrotation Xrotation Yrotation
						JOINT LeftWrist
						{
							OFFSET 0.000000 -0.000001 -12.404900
							CHANNELS 6 Xposition Yposition Zposition Zrotation Xrotation Yrotation
							End Site
							{
								OFFSET 0.000000 0.000000 -2.173901
							}
						}
					}
				}
			}
			JOINT RightCollar
			{
				OFFSET -2.354800 -1.897200 5.063099
				CHANNELS 6 Xposition Yposition Zposition Zrotation Xrotation Yrotation
				JOINT RightShoulder
				{
					OFFSET -4.375800 0.000000 0.000000
					CHANNELS 6 Xposition Yposition Zposition Zrotation Xrotation Yrotation
					JOINT RightElbow
					{
						OFFSET 0.000000 -0.000001 -10.005001
						CHANNELS 6 Xposition Yposition Zposition Zrotation Xrotation Yrotation
						JOINT RightWrist
						{
							OFFSET 0.000000 -0.000001 -13.174900
							CHANNELS 6 Xposition Yposition Zposition Zrotation Xrotation Yrotation
							End Site
							{
								OFFSET 0.000000 0.000000 -2.173901
							}
						}
					}
				}
			}
		}
	}
	JOINT LeftHip
	{
		OFFSET 2.240600 0.386800 -2.614101
		CHANNELS 6 Xposition Yposition Zposition Zrotation Xrotation Yrotation
		JOINT LeftKnee
		{
			OFFSET 0.000000 -0.000001 -18.592899
			CHANNELS 6 Xposition Yposition Zposition Zrotation Xrotation Yrotation
			JOINT LeftAnkle
			{
				OFFSET 0.000000 -0.000001 -18.765800
				CHANNELS 6 Xposition Yposition Zposition Zrotation Xrotation Yrotation
				End Site
				{
					OFFSET 0.000000 -8.655000 0.000000
				}
			}
		}
	}
	JOINT RightHip
	{
		OFFSET -2.014900 -0.220900 -2.615898
		CHANNELS 6 Xposition Yposition Zposition Zrotation Xrotation Yrotation
		JOINT RightKnee
		{
			OFFSET 0.000000 -0.000001 -18.633900
			CHANNELS 6 Xposition Yposition Zposition Zrotation Xrotation Yrotation
			JOINT RightAnkle
			{
				OFFSET 0.000000 -0.000001 -18.285101
				CHANNELS 6 Xposition Yposition Zposition Zrotation Xrotation Yrotation
				End Site
				{
					OFFSET 0.000000 -7.524500 0.000000
				}
			}
		}
	}
}
MOTION
Frames: 9
Frame Time: 0.041667
-11.685701 24.430803 9.745911 1.553292 2.093364 -16.859931 -0.204900 1.598098 7.917308 -5.778166 13.782503 16.535989 -0.000001 0.000006 3.404099 -21.177148 -15.256981 -4.068019 -0.000002 -0.000003 7.928606 56.353248 15.312693 -23.196683 0.000003 0.000004 2.173904 6.541772 5.841086 9.715810 2.833805 -1.396299 4.843299 -4.472743 8.040818 44.536071 4.363592 0.000001 -0.000004 -16.509375 1.070002 -103.503246 -0.000005 0.000005 -10.306901 245.576638 -158.061506 186.615289 -0.000002 0.000003 -12.404886 -233.892615 182.282668 -201.816012 -2.354803 -1.897201 5.063103 5.703679 11.848258 -3.566968 -4.375795 -0.000000 -0.000009 94.767393 -55.219866 173.661371 -0.000013 0.000004 -10.005009 -31.076951 18.954668 -106.828182 -0.000010 -0.000001 -13.174893 102.454470 -224.262827 164.867694 2.240593 0.386802 -2.614102 157.075896 -7.969678 94.353920 0.000002 0.000004 -18.592896 -25.949583 50.032584 -26.002752 0.000001 0.000003 -18.765795 -31.086554 59.202222 16.999426 -2.014898 -0.220894 -2.615896 -94.321306 -27.700618 -80.019641 0.000001 0.000003 -18.633886 165.277273 32.251392 -173.274946 -0.000006 -0.000001 -18.285084 -41.177974 28.723438 -200.434633
-11.674001 24.448204 9.743404 1.536951 2.128487 -16.840986 -0.204898 1.598100 7.917305 -5.721468 13.679654 16.496092 0.000001 -0.000000 3.404099 -21.252822 -15.253264 -4.075097 -0.000000 -0.000008 7.928600 56.238821 15.136935 -23.115105 0.000002 0.000002 2.173903 6.646122 5.736528 9.785724 2.833808 -1.396304 4.843305 -4.892481 8.205631 44.357697 4.363592 0.000003 -0.000007 -15.955785 0.972203 -103.392788 -0.000003 0.000001 -10.306898 245.808181 -158.251877 186.800360 -0.000001 0.000002 -12.404894 -233.624162 182.279854 -202.200674 -2.354801 -1.897200 5.063106 5.795477 11.937385 -3.820724 -4.375789 -0.000003 -0.000014 94.465027 -55.042060 173.536679 -0.000018 0.000004 -10.005009 -31.421404 18.773591 -106.822273 -0.000004 0.000005 -13.174892 102.135835 -224.195509 165.005636 2.240595 0.386800 -2.614106 156.911438 -8.659162 94.453935 0.000003 0.000000 -18.592899 -25.172568 49.838780 -26.290892 0.000002 0.000004 -18.765800 -31.197097 59.232568 17.196019 -2.014897 -0.220893 -2.615900 -93.786502 -28.782714 -79.806109 0.000000 0.000006 -18.633888 164.454440 32.461792 -173.484414 -0.000005 -0.000001 -18.285082 -40.970825 28.670235 -200.699658
-11.662901 24.466303 9.740311 1.523535 2.163682 -16.826630 -0.204900 1.598103 7.917303 -5.674514 13.585648 16.483229 0.000001 -0.000001 3.404099 -21.352833 -15.253713 -4.087098 -0.000002 -0.000002 7.928603 56.327064 14.861500 -23.295463 0.000002 0.000004 2.173907 6.603952 5.775177 9.732793 2.833805 -1.396299 4.843302 -5.366597 8.394510 44.127557 4.363589 0.000004 -0.000013 -15.430328 0.506998 -103.142577 -0.000002 0.000000 -10.306895 245.802990 -158.147156 186.907730 -0.000002 -0.000000 -12.404889 -233.625418 181.899658 -201.969732 -2.354802 -1.897202 5.063109 5.914774 12.046661 -4.144522 -4.375793 0.000001 -0.000010 93.416689 -54.795886 172.866774 -0.000012 0.000005 -10.005006 -32.116690 18.744230 -106.835866 -0.000012 0.000002 -13.174893 102.080141 -224.210303 165.041522 2.240591 0.386805 -2.614103 156.692121 -9.625643 94.532475 0.000004 0.000002 -18.592894 -24.624768 49.766251 -26.262340 0.000001 0.000001 -18.765797 -30.872353 59.223307 17.166781 -2.014899 -0.220893 -2.615899 -93.217643 -29.914931 -79.565700 0.000000 0.000004 -18.633888 163.585790 32.682602 -173.700344 -0.000005 -0.000002 -18.285086 -40.752378 28.613563 -200.956323
-11.651603 24.484903 9.736103 1.514727 2.198672 -16.816453 -0.204898 1.598095 7.917307 -5.638217 13.499614 16.494289 -0.000001 -0.000001 3.404098 -21.484097 -15.253575 -4.104946 0.000001 -0.000003 7.928599 56.475552 14.554754 -23.523260 0.000002 -0.000001 2.173901 6.561345 5.852824 9.739270 2.833808 -1.396301 4.843302 -5.741061 8.573416 43.890611 4.363590 0.000003 -0.000003 -14.935742 0.075709 -102.874670 -0.000005 0.000003 -10.306897 245.570736 -158.081149 186.942619 -0.000000 0.000002 -12.404890 -233.273636 182.060099 -202.626045 -2.354800 -1.897202 5.063107 6.065776 12.180421 -4.505421 -4.375789 0.000000 -0.000008 91.783542 -54.159934 171.633174 -0.000014 0.000005 -10.005012 -32.968223 19.367546 -106.711201 -0.000010 0.000003 -13.174898 102.748284 -224.161467 164.754654 2.240597 0.386796 -2.614101 156.556064 -10.056781 94.626486 0.000003 -0.000001 -18.592897 -24.266638 49.676601 -26.389085 0.000000 0.000001 -18.765799 -30.876519 59.223348 17.300838 -2.014898 -0.220894 -2.615897 -92.792266 -30.775921 -79.400464 0.000001 0.000006 -18.633888 162.917142 32.845225 -173.870880 -0.000007 0.000000 -18.285088 -40.591514 28.567959 -201.169165
-11.648903 24.479605 9.739204 1.514720 2.239411 -16.974559 -0.204900 1.598097 7.917310 -5.649435 13.391849 16.679776 -0.000001 -0.000000 3.404106 -21.631901 -15.258667 -4.127898 -0.000001 -0.000005 7.928599 56.464255 14.319002 -23.547470 0.000002 0.000001 2.173905 6.679803 5.862939 9.759172 2.833805 -1.396303 4.843302 -6.077117 8.724892 43.741877 4.363590 0.000003 -0.000005 -14.692715 -0.563603 -102.880879 -0.000003 0.000002 -10.306902 245.185131 -158.468407 186.838008 -0.000001 0.000000 -12.404895 -233.422152 182.039609 -202.799655 -2.354804 -1.897205 5.063105 6.194357 12.310981 -4.832588 -4.375791 0.000001 -0.000014 91.190525 -53.576482 171.158257 -0.000007 0.000006 -10.005011 -33.264729 20.028464 -106.510141 -0.000006 0.000000 -13.174900 103.446459 -224.140485 164.527851 2.240591 0.386800 -2.614101 156.510424 -9.964437 94.506835 0.000004 0.000001 -18.592897 -24.083770 49.555768 -26.572863 0.000000 0.000003 -18.765797 -31.279739 59.212556 17.705749 -2.014899 -0.220893 -2.615897 -92.790101 -30.972008 -79.428249 0.000000 0.000006 -18.633883 162.875737 32.845604 -173.862301 -0.000006 -0.000002 -18.285088 -40.570624 28.557301 -201.278763
-11.645902 24.473503 9.742111 1.497828 2.268336 -16.978897 -0.204898 1.598101 7.917312 -5.610712 13.319037 16.689239 -0.000000 0.000004 3.404104 -21.771952 -15.270286 -4.151417 0.000001 -0.000004 7.928603 56.505585 14.097428 -23.621746 0.000001 -0.000002 2.173897 6.716493 5.897101 9.904500 2.833807 -1.396302 4.843299 -5.855045 8.697541 44.006035 4.363589 0.000003 -0.000002 -14.603344 0.094701 -103.268642 -0.000005 0.000005 -10.306900 245.454760 -158.815886 186.722496 -0.000002 0.000001 -12.404898 -233.484880 181.857379 -202.847862 -2.354802 -1.897203 5.063109 6.242640 12.385785 -5.091576 -4.375795 -0.000003 -0.000011 90.671745 -53.021550 170.607388 -0.000002 0.000005 -10.005009 -33.546447 20.603633 -106.257499 -0.000007 0.000002 -13.174895 104.050617 -224.126032 164.276964 2.240596 0.386800 -2.614101 156.505452 -9.953576 94.524033 0.000002 0.000002 -18.592897 -24.057274 49.500553 -26.652385 0.000002 0.000002 -18.765797 -31.660328 59.136673 18.253745 -2.014899 -0.220895 -2.615900 -92.782594 -30.981714 -79.441329 0.000000 0.000005 -18.633884 162.868169 32.836493 -173.852042 -0.000005 -0.000003 -18.285086 -40.557059 28.561819 -201.360930
-11.641902 24.465605 9.745708 1.467180 2.299035 -16.992035 -0.204899 1.598098 7.917312 -5.558905 13.249979 16.687740 -0.000000 0.000002 3.404103 -21.913243 -15.294643 -4.177211 0.000001 -0.000005 7.928600 56.621957 13.838402 -23.786506 -0.000001 -0.000000 2.173898 6.656511 6.045421 9.819393 2.833805 -1.396302 4.843304 -5.739914 8.683120 44.137157 4.363586 0.000004 -0.000007 -14.569173 0.214648 -103.539077 -0.000003 0.000002 -10.306897 245.611772 -159.325623 186.690968 -0.000003 0.000001 -12.404891 -233.828466 181.731485 -202.917557 -2.354801 -1.897203 5.063103 6.241652 12.419607 -5.263815 -4.375790 -0.000002 -0.000010 89.859178 -52.488156 169.796877 -0.000009 0.000003 -10.005007 -33.919249 21.307791 -106.056684 -0.000009 0.000002 -13.174894 104.909103 -224.099285 163.913994 2.240594 0.386797 -2.614096 156.515779 -9.927478 94.524292 0.000002 0.000004 -18.592897 -24.058773 49.449214 -26.731407 0.000001 0.000002 -18.765797 -32.135934 59.010027 19.045544 -2.014898 -0.220895 -2.615893 -92.785183 -30.962047 -79.461553 0.000001 0.000004 -18.633883 162.889411 32.814753 -173.831907 -0.000005 -0.000004 -18.285082 -40.552875 28.565864 -201.425530
-11.637200 24.456203 9.749199 1.432671 2.332196 -16.995999 -0.204898 1.598102 7.917312 -5.496857 13.176377 16.655500 -0.000001 -0.000001 3.404094 -22.049862 -15.310841 -4.202282 -0.000003 -0.000000 7.928606 56.614526 13.674072 -23.752809 0.000002 -0.000002 2.173904 6.733516 6.093024 9.689860 2.833809 -1.396298 4.843303 -5.435494 8.602185 44.315084 4.363589 0.000003 -0.000007 -14.574519 0.495757 -103.764090 -0.000002 0.000002 -10.306897 245.451672 -159.696844 186.641818 -0.000001 0.000003 -12.404890 -233.482148 181.946131 -203.523272 -2.354802 -1.897199 5.063103 6.205149 12.423213 -5.296714 -4.375793 0.000001 -0.000011 89.266386 -52.129763 169.129745 -0.000006 0.000005 -10.005007 -34.160061 21.922773 -105.894747 -0.000004 -0.000002 -13.174902 105.560150 -224.047690 163.648477 2.240595 0.386805 -2.614097 156.540805 -9.892154 94.530037 0.000003 0.000000 -18.592894 -24.027344 49.382199 -26.847524 0.000001 0.000003 -18.765797 -32.741342 58.845194 20.095979 -2.014899 -0.220893 -2.615894 -92.806876 -30.893198 -79.490793 0.000000 0.000004 -18.633886 162.948110 32.781329 -173.805283 -0.000006 -0.000001 -18.285084 -40.553152 28.579962 -201.514828
-11.632703 24.446207 9.752514 1.399127 2.358839 -16.996111 -0.204897 1.598099 7.917306 -5.434925 13.110122 16.601765 -0.000001 -0.000004 3.404103 -22.166023 -15.319279 -4.223658 0.000000 -0.000004 7.928604 56.590549 13.500858 -23.682732 0.000002 0.000002 2.173914 6.793778 6.035109 9.668150 2.833812 -1.396300 4.843306 -5.114922 8.480210 44.450707 4.363590 0.000002 -0.000003 -14.453442 1.236141 -103.845219 -0.000002 0.000003 -10.306897 245.959920 -159.878295 186.671625 -0.000002 -0.000002 -12.404896 -233.320847 181.833078 -203.642404 -2.354800 -1.897203 5.063102 6.128613 12.371954 -5.208406 -4.375792 0.000001 -0.000010 89.628932 -52.340880 169.297058 -0.000008 0.000007 -10.005001 -33.965861 21.981890 -105.893901 -0.000005 0.000002 -13.174897 105.606268 -224.130895 163.702436 2.240599 0.386802 -2.614107 156.569014 -9.859154 94.537215 0.000003 -0.000000 -18.592897 -23.884864 49.269846 -27.029017 0.000000 0.000001 -18.765797 -33.367226 58.737011 21.018638 -2.014897 -0.220891 -2.615902 -92.832099 -30.805495 -79.514405 -0.000001 0.000006 -18.633886 163.032203 32.745812 -173.784014 -0.000005 -0.000000 -18.285086 -40.550796 28.595173 -201.637785
